<svg width="55" height="55" viewBox="0 0 55 55" fill="none" xmlns="http://www.w3.org/2000/svg">
<path d="M51.487 0H3.51304C1.57216 0 0 1.57216 0 3.51304V51.487C0 53.4227 1.57216 55 3.51304 55H51.487C53.4227 55 55 53.4278 55 51.487V3.50791C54.9949 1.57216 53.4227 0 51.487 0ZM24.9702 30.9977C24.9702 32.5237 24.8268 33.8296 24.5349 34.905C24.243 35.9804 23.8026 36.8408 23.2188 37.5168C22.6299 38.1825 21.8976 38.6741 21.0219 38.9814C20.1462 39.2938 19.1271 39.4474 17.9646 39.4474C16.9404 39.4474 16.0186 39.2835 15.189 38.966C13.5656 38.3566 12.2956 37.0507 11.7374 35.412C11.4097 34.4953 11.2509 33.5326 11.2663 32.5596V31.8734H14.5591C14.5591 34.9409 15.696 36.4772 17.9697 36.4772C18.5535 36.4772 19.0656 36.4106 19.5265 36.2723C19.9823 36.129 20.3664 35.8729 20.6839 35.4837C21.0014 35.0996 21.237 34.567 21.4008 33.8757C21.5647 33.1844 21.6466 32.2882 21.6466 31.1769V14.0112H24.9804L24.9702 30.9977ZM43.3599 35.9804C43.0116 36.682 42.52 37.3017 41.9157 37.7984C41.2398 38.3412 40.4614 38.7561 39.6318 39.0121C38.7356 39.2989 37.7318 39.4423 36.6206 39.4423C31.6993 39.4423 29.1029 37.5014 28.8366 33.6094H32.0731C32.0885 35.8063 33.594 36.9074 36.5847 36.9074C37.2505 36.9074 37.8445 36.8357 38.3515 36.6872C38.8636 36.5438 39.2886 36.3389 39.6266 36.0829C40.2872 35.6066 40.6764 34.8436 40.6713 34.0293C40.6867 33.6709 40.615 33.3175 40.4716 32.9898C40.3385 32.7235 40.0773 32.493 39.6932 32.2882C39.1811 32.0372 38.6485 31.8375 38.0954 31.6941C37.2095 31.4381 36.3184 31.1923 35.4223 30.9618C34.352 30.6955 33.425 30.4292 32.6518 30.1629C31.9655 29.9479 31.3203 29.6252 30.7365 29.2002C30.25 28.8366 29.8659 28.3552 29.6252 27.8021C29.3845 27.2439 29.2668 26.5424 29.2668 25.6974C29.2668 24.9548 29.4255 24.2635 29.7379 23.6234C30.0554 22.9884 30.5009 22.4353 31.095 21.9642C31.6788 21.4981 32.3906 21.1345 33.2202 20.8683C34.1215 20.5917 35.0638 20.4586 36.0061 20.4688C40.7635 20.4688 43.1858 22.1588 43.2575 25.5438H40.0722C39.9595 23.8538 38.6844 23.0037 36.2467 23.0037C35.7039 23.0037 35.2072 23.0601 34.7412 23.1676C34.2751 23.2751 33.8808 23.4288 33.5377 23.6336C33.1946 23.8333 32.9334 24.0843 32.7388 24.3813C32.5493 24.6885 32.4469 25.047 32.4572 25.4106C32.4572 25.764 32.5033 26.0559 32.5903 26.2812C32.6774 26.5116 32.8873 26.7216 33.2253 26.9162C33.5582 27.1108 34.0549 27.3054 34.7104 27.4949C35.3659 27.6844 36.2621 27.9199 37.399 28.1965C38.4949 28.4628 39.4525 28.7342 40.2616 29.021C41.0656 29.3077 41.7365 29.6508 42.2793 30.0554C42.817 30.4548 43.2114 30.9516 43.4725 31.5303C43.7286 32.1089 43.8617 32.8361 43.8617 33.7067C43.872 34.5312 43.6979 35.284 43.3599 35.9804Z" fill="#CECECE"/>
</svg>
